# xmcd CD database file
#
# Track frame offsets:
#	150
#	20494
#	40719
#	65756
#	95246
#	111845
#	129762
#	149357
#	170618
#	192995
#	213541
#	233266
#	252280
#
# Disc length: 3710 seconds
#
# Revision: 0
# Processed by: cddbd v1.4PL0 Copyright (c) Steve Scherf et al.
# Submitted via: CDex 1.50Beta7
#
DISCID=b70e7c0d
DTITLE=Stacey Kent - Collection II
DYEAR=2003
DGENRE=Jazz
TTITLE0=So Nice
TTITLE1=You're Looking At Me
TTITLE2=Little Girl Blue
TTITLE3=I Concentrate On You
TTITLE4=I'm Putting All My Eggs In One Basket
TTITLE5=They All Laughed
TTITLE6=Don't Be That Way
TTITLE7=I Didn't Know About You
TTITLE8=In The Wee Small Hours Of The Morning
TTITLE9=When Your Lover Has Gone
TTITLE10=He Loves, She Loves
TTITLE11=Little White Lies
TTITLE12=Day In Day Out
EXTD=YEAR: 2003
EXTT0=
EXTT1=
EXTT2=
EXTT3=
EXTT4=
EXTT5=
EXTT6=
EXTT7=
EXTT8=
EXTT9=
EXTT10=
EXTT11=
EXTT12=
PLAYORDER=
